<svg xmlns="http://www.w3.org/2000/svg" xmlns:xlink="http://www.w3.org/1999/xlink" width="500" zoomAndPan="magnify" viewBox="0 0 375 374.999991" height="500" preserveAspectRatio="xMidYMid meet" version="1.0"><defs><g/><clipPath id="55dff59a88"><rect x="0" width="86" y="0" height="203"/></clipPath><clipPath id="f3eb52619c"><path d="M 10 84 L 100 84 L 100 198 L 10 198 Z M 10 84 " clip-rule="nonzero"/></clipPath><clipPath id="4d415f9ee9"><rect x="0" width="100" y="0" height="210"/></clipPath><clipPath id="ff50a1cb9a"><path d="M 63.226562 169.589844 L 80.476562 169.589844 L 80.476562 186.839844 L 63.226562 186.839844 Z M 63.226562 169.589844 " clip-rule="nonzero"/></clipPath></defs><g fill="#f93d3a" fill-opacity="1"><g transform="translate(173.583684, 225.144016)"><g><path d="M 63.171875 -33.6875 C 59.984375 -24.519531 57.082031 -17.898438 54.46875 -13.828125 C 53.4375 -12.328125 52.359375 -10.828125 51.234375 -9.328125 C 50.109375 -7.835938 48.960938 -6.484375 47.796875 -5.265625 C 47.179688 -4.703125 46.570312 -4.210938 45.96875 -3.796875 C 45.082031 -3.140625 43.539062 -2.4375 41.34375 -1.6875 C 39.46875 -1.257812 37.382812 -0.953125 35.09375 -0.765625 C 32.75 -0.535156 30.617188 -0.65625 28.703125 -1.125 C 27.109375 -1.539062 25.613281 -2.523438 24.21875 -4.078125 C 22.289062 -6.179688 20.535156 -8.914062 18.953125 -12.28125 C 16.984375 -16.113281 14.96875 -21.238281 12.90625 -27.65625 C 10.800781 -34.0625 8.910156 -40.773438 7.234375 -47.796875 C 5.546875 -54.816406 4.164062 -61.644531 3.09375 -68.28125 C 1.96875 -74.925781 1.472656 -80.445312 1.609375 -84.84375 C 1.566406 -87.09375 1.78125 -89.484375 2.25 -92.015625 C 2.664062 -94.492188 3.71875 -96.476562 5.40625 -97.96875 C 7.28125 -99.65625 11.65625 -101.109375 18.53125 -102.328125 C 25.363281 -103.546875 29.316406 -101.90625 30.390625 -97.40625 C 30.617188 -96.238281 30.6875 -95 30.59375 -93.6875 C 30.5 -92.382812 30.453125 -91.125 30.453125 -89.90625 C 30.222656 -81.757812 30.90625 -72.820312 32.5 -63.09375 C 34.082031 -53.363281 36.253906 -43.769531 39.015625 -34.3125 C 44.023438 -43.90625 47.207031 -53.171875 48.5625 -62.109375 C 50.34375 -74.742188 51.609375 -82.320312 52.359375 -84.84375 C 53.109375 -87.332031 56.710938 -88.625 63.171875 -88.71875 C 69.617188 -88.757812 73.242188 -87.539062 74.046875 -85.0625 C 74.835938 -82.53125 76.191406 -74.972656 78.109375 -62.390625 C 80.492188 -53.035156 83.609375 -43.84375 87.453125 -34.8125 C 90.210938 -44.3125 92.363281 -53.945312 93.90625 -63.71875 C 95.445312 -73.5 96.03125 -82.460938 95.65625 -90.609375 C 95.707031 -91.828125 95.6875 -93.085938 95.59375 -94.390625 C 95.445312 -95.660156 95.515625 -96.898438 95.796875 -98.109375 C 96.773438 -102.648438 100.820312 -104.382812 107.9375 -103.3125 C 115.050781 -102.1875 119.613281 -100.78125 121.625 -99.09375 C 123.445312 -97.738281 124.59375 -95.820312 125.0625 -93.34375 C 125.53125 -90.8125 125.765625 -88.425781 125.765625 -86.1875 C 125.910156 -81.789062 125.46875 -76.242188 124.4375 -69.546875 C 123.351562 -62.804688 121.972656 -55.929688 120.296875 -48.921875 C 118.609375 -41.898438 116.734375 -35.1875 114.671875 -28.78125 C 112.566406 -22.320312 110.507812 -17.101562 108.5 -13.125 C 106.863281 -9.757812 105.109375 -7.019531 103.234375 -4.90625 C 101.785156 -3.320312 100.195312 -2.316406 98.46875 -1.890625 C 96.5 -1.328125 94.320312 -1.140625 91.9375 -1.328125 C 89.507812 -1.515625 87.332031 -1.796875 85.40625 -2.171875 C 83.113281 -2.828125 81.523438 -3.460938 80.640625 -4.078125 C 79.984375 -4.492188 79.328125 -4.984375 78.671875 -5.546875 C 77.410156 -6.765625 76.195312 -8.117188 75.03125 -9.609375 C 73.851562 -11.066406 72.707031 -12.539062 71.59375 -14.03125 C 68.738281 -18.15625 65.929688 -24.707031 63.171875 -33.6875 Z M 63.171875 -33.6875 "/></g></g></g><g transform="matrix(1, 0, 0, 1, 118, 96)"><g clip-path="url(#55dff59a88)"><g fill="#31a768" fill-opacity="1"><g transform="translate(0.870885, 160.480351)"><g><path d="M 31.6875 -72.171875 C 34.4375 -72.734375 37.191406 -72.988281 39.953125 -72.9375 C 46.222656 -72.78125 51.960938 -71.070312 57.171875 -67.8125 C 62.679688 -64.34375 67.015625 -59.75 70.171875 -54.03125 C 73.335938 -48.257812 75.710938 -42.46875 77.296875 -36.65625 C 78.367188 -32.570312 79.441406 -26.910156 80.515625 -19.671875 C 81.535156 -12.421875 81.226562 -6.832031 79.59375 -2.90625 C 79.03125 -1.53125 78.0625 -0.710938 76.6875 -0.453125 C 74.289062 -0.046875 71.351562 -0.378906 67.875 -1.453125 C 64.363281 -2.523438 61.914062 -3.671875 60.53125 -4.890625 C 59.925781 -5.359375 59.492188 -5.921875 59.234375 -6.578125 C 58.722656 -7.492188 58.519531 -8.515625 58.625 -9.640625 C 58.675781 -10.765625 58.753906 -11.8125 58.859375 -12.78125 C 59.265625 -16.457031 59.160156 -20.359375 58.546875 -24.484375 C 57.929688 -28.566406 57.039062 -32.367188 55.875 -35.890625 C 55.050781 -38.285156 54.078125 -40.328125 52.953125 -42.015625 C 49.484375 -47.523438 45.757812 -50.078125 41.78125 -49.671875 C 37.800781 -49.210938 35.226562 -44.644531 34.0625 -35.96875 C 33.695312 -31.125 34.816406 -24.03125 37.421875 -14.6875 C 37.773438 -13.46875 38.160156 -12.195312 38.578125 -10.875 C 38.929688 -9.488281 39.160156 -8.160156 39.265625 -6.890625 C 39.316406 -4.492188 38.296875 -2.785156 36.203125 -1.765625 C 34.054688 -0.742188 31.582031 -0.15625 28.78125 0 C 25.96875 0.15625 23.1875 -0.0195312 20.4375 -0.53125 C 17.675781 -1.039062 15.738281 -1.65625 14.625 -2.375 C 12.53125 -3.644531 10.972656 -5.53125 9.953125 -8.03125 C 8.878906 -10.53125 8.035156 -12.976562 7.421875 -15.375 C 6.242188 -19.96875 5.328125 -25.8125 4.671875 -32.90625 C 4.003906 -39.945312 3.617188 -47.242188 3.515625 -54.796875 C 3.421875 -62.347656 3.578125 -69.617188 3.984375 -76.609375 C 4.390625 -83.546875 5.078125 -89.15625 6.046875 -93.4375 C 6.960938 -97.414062 8.007812 -100.53125 9.1875 -102.78125 C 10.207031 -104.613281 11.457031 -105.863281 12.9375 -106.53125 C 14.71875 -107.34375 16.804688 -107.828125 19.203125 -107.984375 C 21.554688 -108.140625 23.675781 -108.113281 25.5625 -107.90625 C 28.3125 -107.601562 30.476562 -106.8125 32.0625 -105.53125 C 33.644531 -104.257812 34.179688 -101.757812 33.671875 -98.03125 C 32.546875 -89.914062 31.882812 -81.296875 31.6875 -72.171875 Z M 31.6875 -72.171875 "/></g></g></g></g></g><g transform="matrix(1, 0, 0, 1, 275, 60)"><g clip-path="url(#4d415f9ee9)"><g clip-path="url(#f3eb52619c)"><g fill="#e8678f" fill-opacity="1"><g transform="translate(14.202154, 167.786841)"><g><path d="M 57.125 -43.328125 C 56.882812 -46.992188 54.570312 -50.675781 50.1875 -54.375 C 45.800781 -58.019531 41.566406 -58.632812 37.484375 -56.21875 C 34.878906 -54.71875 33.375 -52.753906 32.96875 -50.328125 C 32.5625 -47.898438 32.851562 -45.382812 33.84375 -42.78125 C 34.957031 -39.894531 36.847656 -37.59375 39.515625 -35.875 C 42.191406 -34.113281 44.863281 -33.164062 47.53125 -33.03125 C 50.207031 -32.851562 52.53125 -33.597656 54.5 -35.265625 C 56.5 -36.867188 57.375 -39.554688 57.125 -43.328125 Z M 24.421875 -69.328125 C 26.078125 -70.804688 27.828125 -72.195312 29.671875 -73.5 C 33.929688 -76.34375 38.59375 -78.191406 43.65625 -79.046875 C 48.832031 -79.773438 53.863281 -79.484375 58.75 -78.171875 C 62.5 -77.148438 66.023438 -75.59375 69.328125 -73.5 C 72.585938 -71.414062 75.203125 -68.675781 77.171875 -65.28125 C 79.003906 -61.96875 80.179688 -58.003906 80.703125 -53.390625 C 81.378906 -46.785156 80.53125 -40.644531 78.15625 -34.96875 C 76.957031 -32.175781 75.601562 -29.484375 74.09375 -26.890625 C 72.570312 -24.234375 70.765625 -21.734375 68.671875 -19.390625 C 67.773438 -18.359375 66.894531 -17.378906 66.03125 -16.453125 C 60.375 -10.710938 53.796875 -6.578125 46.296875 -4.046875 C 40.441406 -2.015625 35.460938 -1.503906 31.359375 -2.515625 C 33.179688 14.296875 33.890625 23.113281 33.484375 23.9375 C 32.710938 25.476562 31.679688 26.546875 30.390625 27.140625 C 28.953125 27.910156 26.84375 28.4375 24.0625 28.71875 C 21.257812 29 19.039062 29.117188 17.40625 29.078125 C 15.039062 28.972656 13.140625 28.457031 11.703125 27.53125 C 10.265625 26.644531 9.378906 18.976562 9.046875 4.53125 C 8.304688 -9.78125 7.335938 -22.953125 6.140625 -34.984375 C 4.890625 -46.972656 2.535156 -57.503906 -0.921875 -66.578125 C -1.234375 -67.535156 -1.601562 -68.535156 -2.03125 -69.578125 C -2.457031 -70.566406 -2.734375 -71.570312 -2.859375 -72.59375 C -3.023438 -74.476562 -2.222656 -75.882812 -0.453125 -76.8125 C 1.328125 -77.695312 3.4375 -78.269531 5.875 -78.53125 C 8.269531 -78.789062 10.671875 -78.820312 13.078125 -78.625 C 15.453125 -78.363281 17.144531 -77.988281 18.15625 -77.5 C 20 -76.613281 21.441406 -75.222656 22.484375 -73.328125 C 23.234375 -71.941406 23.878906 -70.609375 24.421875 -69.328125 Z M 24.421875 -69.328125 "/></g></g></g></g></g></g><g fill="#25754a" fill-opacity="1"><g transform="translate(30.715107, 243.431145)"><g><path d="M 13.0625 -6.328125 C 13.4375 -6.015625 13.71875 -5.71875 13.90625 -5.4375 C 14.125 -5.113281 14.175781 -4.828125 14.0625 -4.578125 C 13.914062 -4.285156 13.75 -4.003906 13.5625 -3.734375 C 13.375 -3.460938 13.144531 -3.238281 12.875 -3.0625 C 12.488281 -2.789062 12.195312 -2.703125 12 -2.796875 C 11.820312 -2.878906 11.660156 -2.992188 11.515625 -3.140625 C 11.378906 -3.285156 11.25 -3.421875 11.125 -3.546875 C 10.820312 -3.828125 10.375 -4.101562 9.78125 -4.375 C 9.175781 -4.625 8.566406 -4.757812 7.953125 -4.78125 C 7.316406 -4.800781 6.742188 -4.628906 6.234375 -4.265625 C 5.722656 -3.910156 5.410156 -3.253906 5.296875 -2.296875 C 5.222656 -1.617188 5.4375 -0.992188 5.9375 -0.421875 C 6.445312 0.140625 7.046875 0.546875 7.734375 0.796875 C 8.253906 0.984375 8.867188 1.046875 9.578125 0.984375 C 10.285156 0.898438 10.78125 1.28125 11.0625 2.125 C 11.21875 2.613281 11.050781 2.941406 10.5625 3.109375 C 10.082031 3.285156 9.675781 3.40625 9.34375 3.46875 C 9.101562 3.507812 8.878906 3.535156 8.671875 3.546875 C 8.085938 3.566406 7.554688 3.484375 7.078125 3.296875 C 6.578125 3.109375 6.113281 2.882812 5.6875 2.625 C 5.082031 2.257812 4.550781 1.832031 4.09375 1.34375 C 3.726562 0.9375 3.414062 0.492188 3.15625 0.015625 C 2.875 -0.472656 2.679688 -1.007812 2.578125 -1.59375 C 2.367188 -2.664062 2.394531 -3.726562 2.65625 -4.78125 C 3.050781 -6.40625 4.003906 -7.46875 5.515625 -7.96875 C 6.273438 -8.21875 7.039062 -8.3125 7.8125 -8.25 C 8.582031 -8.1875 9.296875 -8.054688 9.953125 -7.859375 C 10.503906 -7.691406 11.046875 -7.484375 11.578125 -7.234375 C 12.109375 -6.972656 12.601562 -6.671875 13.0625 -6.328125 Z M 13.0625 -6.328125 "/></g></g></g><g fill="#25754a" fill-opacity="1"><g transform="translate(43.878673, 249.429452)"><g><path d="M 5.21875 -5.796875 C 5.5 -5.765625 5.765625 -5.707031 6.015625 -5.625 C 6.585938 -5.40625 7.070312 -5.0625 7.46875 -4.59375 C 7.875 -4.09375 8.140625 -3.53125 8.265625 -2.90625 C 8.378906 -2.269531 8.421875 -1.648438 8.390625 -1.046875 C 8.359375 -0.628906 8.285156 -0.0625 8.171875 0.65625 C 8.046875 1.363281 7.847656 1.878906 7.578125 2.203125 C 7.472656 2.304688 7.351562 2.347656 7.21875 2.328125 C 6.988281 2.296875 6.722656 2.175781 6.421875 1.96875 C 6.117188 1.757812 5.925781 1.578125 5.84375 1.421875 C 5.789062 1.359375 5.765625 1.285156 5.765625 1.203125 C 5.742188 1.117188 5.753906 1.019531 5.796875 0.90625 C 5.847656 0.8125 5.882812 0.71875 5.90625 0.625 C 6.0625 0.289062 6.179688 -0.078125 6.265625 -0.484375 C 6.335938 -0.890625 6.367188 -1.273438 6.359375 -1.640625 C 6.359375 -1.890625 6.328125 -2.113281 6.265625 -2.3125 C 6.117188 -2.925781 5.847656 -3.273438 5.453125 -3.359375 C 5.078125 -3.441406 4.695312 -3.097656 4.3125 -2.328125 C 4.125 -1.890625 4.007812 -1.1875 3.96875 -0.21875 C 3.957031 -0.09375 3.957031 0.03125 3.96875 0.15625 C 3.96875 0.3125 3.945312 0.445312 3.90625 0.5625 C 3.832031 0.789062 3.675781 0.925781 3.4375 0.96875 C 3.207031 0.988281 2.960938 0.960938 2.703125 0.890625 C 2.429688 0.816406 2.175781 0.710938 1.9375 0.578125 C 1.695312 0.441406 1.535156 0.328125 1.453125 0.234375 C 1.285156 0.046875 1.195312 -0.175781 1.1875 -0.4375 C 1.15625 -0.707031 1.148438 -0.960938 1.171875 -1.203125 C 1.203125 -1.679688 1.296875 -2.265625 1.453125 -2.953125 C 1.609375 -3.628906 1.800781 -4.328125 2.03125 -5.046875 C 2.25 -5.753906 2.488281 -6.429688 2.75 -7.078125 C 3.007812 -7.710938 3.242188 -8.210938 3.453125 -8.578125 C 3.671875 -8.921875 3.867188 -9.1875 4.046875 -9.375 C 4.203125 -9.507812 4.359375 -9.582031 4.515625 -9.59375 C 4.710938 -9.625 4.925781 -9.609375 5.15625 -9.546875 C 5.382812 -9.492188 5.582031 -9.425781 5.75 -9.34375 C 6 -9.226562 6.175781 -9.082031 6.28125 -8.90625 C 6.394531 -8.75 6.363281 -8.5 6.1875 -8.15625 C 5.832031 -7.4375 5.507812 -6.648438 5.21875 -5.796875 Z M 5.21875 -5.796875 "/></g></g></g><g fill="#25754a" fill-opacity="1"><g transform="translate(54.271449, 252.638668)"><g><path d="M 2.890625 -7.015625 C 3.023438 -7.003906 3.164062 -6.984375 3.3125 -6.953125 C 3.375 -6.941406 3.441406 -6.925781 3.515625 -6.90625 C 3.816406 -6.8125 4.03125 -6.738281 4.15625 -6.6875 C 4.332031 -6.601562 4.472656 -6.53125 4.578125 -6.46875 C 4.609375 -6.46875 4.640625 -6.453125 4.671875 -6.421875 C 4.691406 -6.398438 4.710938 -6.375 4.734375 -6.34375 L 4.796875 -6.21875 C 4.816406 -6.207031 4.84375 -6.171875 4.875 -6.109375 C 4.875 -6.085938 4.878906 -6.046875 4.890625 -5.984375 L 4.875 -5.8125 C 4.863281 -5.78125 4.863281 -5.71875 4.875 -5.625 C 4.875 -5.601562 4.867188 -5.570312 4.859375 -5.53125 C 4.753906 -5.164062 4.582031 -4.640625 4.34375 -3.953125 C 4.238281 -3.640625 4.140625 -3.296875 4.046875 -2.921875 C 3.847656 -2.078125 3.710938 -1.171875 3.640625 -0.203125 C 3.597656 -0.0546875 3.539062 0.0820312 3.46875 0.21875 C 3.40625 0.363281 3.347656 0.453125 3.296875 0.484375 C 3.210938 0.554688 3.070312 0.59375 2.875 0.59375 C 2.78125 0.59375 2.6875 0.582031 2.59375 0.5625 C 2.476562 0.53125 2.363281 0.503906 2.25 0.484375 C 2.050781 0.421875 1.835938 0.34375 1.609375 0.25 C 1.429688 0.1875 1.285156 0.117188 1.171875 0.046875 L 1.09375 -0.015625 C 1.070312 -0.0351562 1.046875 -0.0664062 1.015625 -0.109375 C 0.992188 -0.117188 0.972656 -0.148438 0.953125 -0.203125 C 0.953125 -0.203125 0.9375 -0.238281 0.90625 -0.3125 C 0.882812 -0.332031 0.875 -0.375 0.875 -0.4375 C 0.863281 -0.488281 0.863281 -0.554688 0.875 -0.640625 C 0.882812 -0.734375 1.015625 -1.582031 1.265625 -3.1875 C 1.316406 -3.46875 1.375 -3.738281 1.4375 -4 L 1.4375 -4.03125 L 1.453125 -4.078125 L 1.453125 -4.109375 C 1.460938 -4.117188 1.46875 -4.128906 1.46875 -4.140625 C 1.738281 -5.296875 2.210938 -6.253906 2.890625 -7.015625 Z M 5.375 -9.28125 C 5.582031 -8.96875 5.644531 -8.632812 5.5625 -8.28125 C 5.476562 -7.9375 5.28125 -7.675781 4.96875 -7.5 C 4.632812 -7.3125 4.285156 -7.265625 3.921875 -7.359375 C 3.554688 -7.441406 3.28125 -7.640625 3.09375 -7.953125 C 2.882812 -8.253906 2.820312 -8.578125 2.90625 -8.921875 C 2.988281 -9.273438 3.1875 -9.546875 3.5 -9.734375 C 3.8125 -9.910156 4.148438 -9.957031 4.515625 -9.875 C 4.878906 -9.78125 5.164062 -9.582031 5.375 -9.28125 Z M 5.375 -9.28125 "/></g></g></g><g fill="#25754a" fill-opacity="1"><g transform="translate(60.555613, 254.061703)"><g><path d="M 3.96875 -6.25 C 4.625 -6.519531 5.210938 -6.609375 5.734375 -6.515625 C 6.285156 -6.410156 6.664062 -6.210938 6.875 -5.921875 C 7.101562 -5.617188 7.082031 -5.242188 6.8125 -4.796875 C 6.539062 -4.347656 6.222656 -4.191406 5.859375 -4.328125 C 5.503906 -4.472656 5.125 -4.5 4.71875 -4.40625 C 4.300781 -4.300781 4.003906 -3.929688 3.828125 -3.296875 C 3.648438 -2.648438 3.613281 -1.847656 3.71875 -0.890625 C 3.75 -0.753906 3.769531 -0.625 3.78125 -0.5 C 3.800781 -0.351562 3.804688 -0.21875 3.796875 -0.09375 C 3.753906 0.132812 3.625 0.285156 3.40625 0.359375 C 3.1875 0.429688 2.9375 0.453125 2.65625 0.421875 C 2.382812 0.390625 2.117188 0.332031 1.859375 0.25 C 1.585938 0.144531 1.40625 0.0507812 1.3125 -0.03125 C 1.125 -0.1875 1 -0.394531 0.9375 -0.65625 C 0.875 -0.914062 0.832031 -1.164062 0.8125 -1.40625 C 0.769531 -1.875 0.769531 -2.460938 0.8125 -3.171875 C 0.851562 -3.867188 0.914062 -4.472656 1 -4.984375 C 1.070312 -5.484375 1.15625 -5.914062 1.25 -6.28125 C 1.34375 -6.65625 1.460938 -6.9375 1.609375 -7.125 C 1.742188 -7.300781 1.882812 -7.410156 2.03125 -7.453125 C 2.21875 -7.503906 2.429688 -7.515625 2.671875 -7.484375 C 2.910156 -7.472656 3.113281 -7.441406 3.28125 -7.390625 C 3.550781 -7.316406 3.753906 -7.207031 3.890625 -7.0625 C 4.023438 -6.914062 4.035156 -6.660156 3.921875 -6.296875 Z M 3.96875 -6.25 "/></g></g></g><g fill="#25754a" fill-opacity="1"><g transform="translate(69.234472, 255.348384)"><g><path d="M 6.109375 -3.59375 C 6.128906 -3.957031 5.953125 -4.347656 5.578125 -4.765625 C 5.179688 -5.160156 4.769531 -5.269531 4.34375 -5.09375 C 4.070312 -4.96875 3.898438 -4.789062 3.828125 -4.5625 C 3.765625 -4.320312 3.769531 -4.070312 3.84375 -3.8125 C 3.90625 -3.507812 4.054688 -3.257812 4.296875 -3.0625 C 4.546875 -2.863281 4.800781 -2.738281 5.0625 -2.6875 C 5.320312 -2.644531 5.554688 -2.691406 5.765625 -2.828125 C 5.972656 -2.960938 6.085938 -3.21875 6.109375 -3.59375 Z M 3.21875 -6.515625 C 3.40625 -6.640625 3.59375 -6.753906 3.78125 -6.859375 C 4.238281 -7.085938 4.722656 -7.210938 5.234375 -7.234375 C 5.734375 -7.253906 6.210938 -7.164062 6.671875 -6.96875 C 7.023438 -6.832031 7.351562 -6.640625 7.65625 -6.390625 C 7.957031 -6.148438 8.179688 -5.847656 8.328125 -5.484375 C 8.484375 -5.148438 8.554688 -4.753906 8.546875 -4.296875 C 8.535156 -3.640625 8.378906 -3.046875 8.078125 -2.515625 C 7.929688 -2.253906 7.765625 -2.003906 7.578125 -1.765625 C 7.398438 -1.523438 7.195312 -1.300781 6.96875 -1.09375 C 6.875 -1.007812 6.773438 -0.925781 6.671875 -0.84375 C 6.046875 -0.34375 5.351562 -0.0078125 4.59375 0.15625 C 4 0.28125 3.503906 0.269531 3.109375 0.125 C 3.097656 1.789062 3.066406 2.664062 3.015625 2.75 C 2.910156 2.882812 2.796875 2.976562 2.671875 3.03125 C 2.523438 3.082031 2.3125 3.109375 2.03125 3.109375 C 1.75 3.097656 1.53125 3.082031 1.375 3.0625 C 1.144531 3.019531 0.957031 2.945312 0.8125 2.84375 C 0.6875 2.75 0.691406 1.984375 0.828125 0.546875 C 0.929688 -0.867188 0.992188 -2.171875 1.015625 -3.359375 C 1.035156 -4.554688 0.929688 -5.617188 0.703125 -6.546875 C 0.671875 -6.640625 0.644531 -6.738281 0.625 -6.84375 C 0.59375 -6.945312 0.578125 -7.050781 0.578125 -7.15625 C 0.585938 -7.34375 0.679688 -7.46875 0.859375 -7.53125 C 1.046875 -7.601562 1.257812 -7.640625 1.5 -7.640625 C 1.75 -7.640625 1.984375 -7.613281 2.203125 -7.5625 C 2.441406 -7.507812 2.609375 -7.453125 2.703125 -7.390625 C 2.867188 -7.273438 2.988281 -7.125 3.0625 -6.9375 C 3.132812 -6.78125 3.1875 -6.640625 3.21875 -6.515625 Z M 3.21875 -6.515625 "/></g></g></g><g fill="#3d98d6" fill-opacity="1"><g transform="translate(14.398573, 237.344267)"><g><path d="M 91.453125 -114.71875 C 96.347656 -113.59375 100.226562 -112.191406 103.09375 -110.515625 C 106.457031 -108.472656 108.140625 -106.046875 108.140625 -103.234375 C 108.140625 -99.972656 107.859375 -96.707031 107.296875 -93.4375 C 106.734375 -90.175781 105.632812 -87.117188 104 -84.265625 C 101.65625 -80.128906 99.382812 -78.0625 97.1875 -78.0625 C 95.195312 -78.0625 93.257812 -78.394531 91.375 -79.0625 C 89.4375 -79.71875 87.550781 -80.351562 85.71875 -80.96875 C 81.882812 -82.238281 76.679688 -82.773438 70.109375 -82.578125 C 63.523438 -82.316406 57.347656 -80.890625 51.578125 -78.296875 C 45.765625 -75.691406 41.300781 -71.660156 38.1875 -66.203125 C 35.019531 -60.742188 35.019531 -53.445312 38.1875 -44.3125 C 40.476562 -37.625 45.171875 -32.828125 52.265625 -29.921875 C 59.359375 -26.960938 66.578125 -25.84375 73.921875 -26.5625 C 79.535156 -27.113281 85.429688 -29.28125 91.609375 -33.0625 C 97.773438 -36.832031 103.945312 -35.503906 110.125 -29.078125 C 113.695312 -25.304688 113.644531 -21.554688 109.96875 -17.828125 C 106.25 -14.109375 103.007812 -11.253906 100.25 -9.265625 C 98.3125 -7.878906 96.398438 -6.703125 94.515625 -5.734375 C 89.304688 -2.984375 84.078125 -1.378906 78.828125 -0.921875 C 73.566406 -0.460938 68.335938 -0.460938 63.140625 -0.921875 C 56.203125 -1.578125 49.539062 -3.179688 43.15625 -5.734375 C 38.113281 -7.722656 33.296875 -10.378906 28.703125 -13.703125 C 24.054688 -16.960938 19.972656 -20.992188 16.453125 -25.796875 C 9.921875 -34.566406 5.5625 -44.335938 3.375 -55.109375 C -0.144531 -71.734375 3.878906 -85.609375 15.453125 -96.734375 C 21.273438 -102.347656 27.859375 -106.554688 35.203125 -109.359375 C 42.492188 -112.171875 49.5625 -114.132812 56.40625 -115.25 C 62.113281 -116.164062 67.953125 -116.625 73.921875 -116.625 C 79.890625 -116.625 85.734375 -115.988281 91.453125 -114.71875 Z M 91.453125 -114.71875 "/></g></g></g><g fill="#25754a" fill-opacity="1"><g transform="translate(245.284204, 255.641924)"><g><path d="M 6.15625 -4.640625 C 5.976562 -3.609375 5.773438 -2.851562 5.546875 -2.375 C 5.484375 -2.207031 5.398438 -2.03125 5.296875 -1.84375 C 5.203125 -1.664062 5.101562 -1.503906 5 -1.359375 C 4.9375 -1.285156 4.878906 -1.222656 4.828125 -1.171875 C 4.742188 -1.085938 4.59375 -0.988281 4.375 -0.875 C 4.1875 -0.789062 3.96875 -0.722656 3.71875 -0.671875 C 3.476562 -0.609375 3.253906 -0.585938 3.046875 -0.609375 C 2.859375 -0.617188 2.679688 -0.695312 2.515625 -0.84375 C 2.265625 -1.03125 2.03125 -1.289062 1.8125 -1.625 C 1.539062 -1.988281 1.238281 -2.503906 0.90625 -3.171875 C 0.570312 -3.804688 0.257812 -4.488281 -0.03125 -5.21875 C -0.332031 -5.925781 -0.59375 -6.625 -0.8125 -7.3125 C -1.039062 -8.007812 -1.1875 -8.59375 -1.25 -9.0625 C -1.289062 -9.300781 -1.3125 -9.550781 -1.3125 -9.8125 C -1.300781 -10.09375 -1.21875 -10.332031 -1.0625 -10.53125 C -0.894531 -10.738281 -0.457031 -10.960938 0.25 -11.203125 C 0.957031 -11.441406 1.40625 -11.335938 1.59375 -10.890625 C 1.632812 -10.765625 1.660156 -10.628906 1.671875 -10.484375 C 1.691406 -10.335938 1.710938 -10.203125 1.734375 -10.078125 C 1.847656 -9.203125 2.066406 -8.265625 2.390625 -7.265625 C 2.722656 -6.242188 3.117188 -5.257812 3.578125 -4.3125 C 3.953125 -5.414062 4.132812 -6.453125 4.125 -7.421875 C 4.101562 -8.796875 4.113281 -9.625 4.15625 -9.90625 C 4.195312 -10.1875 4.554688 -10.390625 5.234375 -10.515625 C 5.921875 -10.617188 6.332031 -10.546875 6.46875 -10.296875 C 6.59375 -10.035156 6.859375 -9.253906 7.265625 -7.953125 C 7.671875 -6.992188 8.160156 -6.066406 8.734375 -5.171875 C 8.847656 -6.222656 8.910156 -7.285156 8.921875 -8.359375 C 8.921875 -9.421875 8.835938 -10.382812 8.671875 -11.25 C 8.648438 -11.375 8.625 -11.507812 8.59375 -11.65625 C 8.5625 -11.78125 8.550781 -11.910156 8.5625 -12.046875 C 8.59375 -12.535156 8.988281 -12.785156 9.75 -12.796875 C 10.53125 -12.796875 11.046875 -12.726562 11.296875 -12.59375 C 11.503906 -12.46875 11.648438 -12.28125 11.734375 -12.03125 C 11.828125 -11.757812 11.894531 -11.507812 11.9375 -11.28125 C 12.03125 -10.8125 12.078125 -10.210938 12.078125 -9.484375 C 12.078125 -8.753906 12.046875 -8 11.984375 -7.21875 C 11.921875 -6.445312 11.832031 -5.703125 11.71875 -4.984375 C 11.601562 -4.265625 11.472656 -3.671875 11.328125 -3.203125 C 11.203125 -2.828125 11.0625 -2.515625 10.90625 -2.265625 C 10.78125 -2.054688 10.628906 -1.921875 10.453125 -1.859375 C 10.253906 -1.765625 10.023438 -1.707031 9.765625 -1.6875 C 9.503906 -1.664062 9.269531 -1.660156 9.0625 -1.671875 C 8.800781 -1.703125 8.617188 -1.742188 8.515625 -1.796875 C 8.429688 -1.816406 8.347656 -1.851562 8.265625 -1.90625 C 8.117188 -2.007812 7.972656 -2.128906 7.828125 -2.265625 C 7.671875 -2.410156 7.523438 -2.554688 7.390625 -2.703125 C 7.003906 -3.078125 6.59375 -3.722656 6.15625 -4.640625 Z M 6.15625 -4.640625 "/></g></g></g><g fill="#25754a" fill-opacity="1"><g transform="translate(261.593935, 252.680492)"><g><path d="M 0.90625 -7.71875 C 1.144531 -7.863281 1.40625 -7.972656 1.6875 -8.046875 C 2.269531 -8.210938 2.851562 -8.210938 3.4375 -8.046875 C 4.070312 -7.890625 4.617188 -7.582031 5.078125 -7.125 C 5.535156 -6.675781 5.925781 -6.203125 6.25 -5.703125 C 6.46875 -5.347656 6.734375 -4.835938 7.046875 -4.171875 C 7.347656 -3.523438 7.476562 -2.988281 7.4375 -2.5625 C 7.425781 -2.414062 7.359375 -2.3125 7.234375 -2.25 C 7.015625 -2.144531 6.722656 -2.09375 6.359375 -2.09375 C 6.003906 -2.082031 5.742188 -2.125 5.578125 -2.21875 C 5.515625 -2.226562 5.460938 -2.265625 5.421875 -2.328125 C 5.335938 -2.398438 5.285156 -2.488281 5.265625 -2.59375 C 5.234375 -2.707031 5.207031 -2.804688 5.1875 -2.890625 C 5.125 -3.265625 5.003906 -3.632812 4.828125 -4 C 4.640625 -4.375 4.445312 -4.707031 4.25 -5 C 4.09375 -5.207031 3.9375 -5.375 3.78125 -5.5 C 3.300781 -5.914062 2.878906 -6.046875 2.515625 -5.890625 C 2.148438 -5.742188 2.039062 -5.238281 2.1875 -4.375 C 2.289062 -3.90625 2.601562 -3.269531 3.125 -2.46875 C 3.1875 -2.351562 3.253906 -2.242188 3.328125 -2.140625 C 3.398438 -2.023438 3.457031 -1.90625 3.5 -1.78125 C 3.582031 -1.5625 3.539062 -1.375 3.375 -1.21875 C 3.207031 -1.050781 2.988281 -0.921875 2.71875 -0.828125 C 2.445312 -0.734375 2.175781 -0.671875 1.90625 -0.640625 C 1.644531 -0.609375 1.445312 -0.609375 1.3125 -0.640625 C 1.082031 -0.703125 0.878906 -0.835938 0.703125 -1.046875 C 0.535156 -1.253906 0.390625 -1.460938 0.265625 -1.671875 C 0.015625 -2.066406 -0.238281 -2.59375 -0.5 -3.25 C -0.769531 -3.894531 -1.019531 -4.566406 -1.25 -5.265625 C -1.476562 -5.984375 -1.671875 -6.675781 -1.828125 -7.34375 C -1.984375 -8.007812 -2.082031 -8.5625 -2.125 -9 C -2.144531 -9.414062 -2.140625 -9.742188 -2.109375 -9.984375 C -2.054688 -10.179688 -1.972656 -10.335938 -1.859375 -10.453125 C -1.703125 -10.566406 -1.515625 -10.664062 -1.296875 -10.75 C -1.066406 -10.832031 -0.863281 -10.890625 -0.6875 -10.921875 C -0.414062 -10.972656 -0.191406 -10.960938 -0.015625 -10.890625 C 0.179688 -10.828125 0.304688 -10.609375 0.359375 -10.234375 C 0.484375 -9.429688 0.664062 -8.59375 0.90625 -7.71875 Z M 0.90625 -7.71875 "/></g></g></g><g fill="#25754a" fill-opacity="1"><g transform="translate(271.921956, 249.313768)"><g><path d="M -1.71875 -7.390625 C -1.582031 -7.472656 -1.441406 -7.539062 -1.296875 -7.59375 C -1.234375 -7.625 -1.171875 -7.644531 -1.109375 -7.65625 C -0.804688 -7.75 -0.585938 -7.8125 -0.453125 -7.84375 C -0.265625 -7.894531 -0.113281 -7.925781 0 -7.9375 C 0.03125 -7.9375 0.0703125 -7.9375 0.125 -7.9375 C 0.15625 -7.914062 0.1875 -7.898438 0.21875 -7.890625 L 0.34375 -7.859375 C 0.363281 -7.847656 0.398438 -7.828125 0.453125 -7.796875 C 0.472656 -7.773438 0.492188 -7.75 0.515625 -7.71875 L 0.640625 -7.5625 C 0.648438 -7.519531 0.679688 -7.460938 0.734375 -7.390625 C 0.753906 -7.378906 0.773438 -7.351562 0.796875 -7.3125 C 0.910156 -6.945312 1.070312 -6.421875 1.28125 -5.734375 C 1.375 -5.410156 1.492188 -5.070312 1.640625 -4.71875 C 1.960938 -3.925781 2.367188 -3.109375 2.859375 -2.265625 C 2.910156 -2.109375 2.945312 -1.957031 2.96875 -1.8125 C 2.976562 -1.664062 2.984375 -1.566406 2.984375 -1.515625 C 2.960938 -1.390625 2.863281 -1.273438 2.6875 -1.171875 C 2.613281 -1.117188 2.523438 -1.070312 2.421875 -1.03125 C 2.328125 -0.988281 2.222656 -0.945312 2.109375 -0.90625 C 1.921875 -0.84375 1.703125 -0.78125 1.453125 -0.71875 C 1.273438 -0.664062 1.125 -0.640625 1 -0.640625 L 0.890625 -0.640625 C 0.859375 -0.648438 0.816406 -0.660156 0.765625 -0.671875 C 0.742188 -0.671875 0.707031 -0.6875 0.65625 -0.71875 C 0.65625 -0.71875 0.617188 -0.738281 0.546875 -0.78125 C 0.515625 -0.78125 0.488281 -0.804688 0.46875 -0.859375 C 0.425781 -0.898438 0.390625 -0.953125 0.359375 -1.015625 C 0.304688 -1.097656 -0.078125 -1.867188 -0.796875 -3.328125 C -0.921875 -3.578125 -1.035156 -3.828125 -1.140625 -4.078125 L -1.171875 -4.140625 L -1.1875 -4.1875 C -1.1875 -4.195312 -1.1875 -4.207031 -1.1875 -4.21875 C -1.632812 -5.3125 -1.8125 -6.367188 -1.71875 -7.390625 Z M -0.9375 -10.65625 C -0.59375 -10.53125 -0.359375 -10.304688 -0.234375 -9.984375 C -0.0976562 -9.648438 -0.109375 -9.316406 -0.265625 -8.984375 C -0.429688 -8.648438 -0.6875 -8.410156 -1.03125 -8.265625 C -1.375 -8.128906 -1.71875 -8.128906 -2.0625 -8.265625 C -2.40625 -8.398438 -2.644531 -8.632812 -2.78125 -8.96875 C -2.90625 -9.289062 -2.890625 -9.613281 -2.734375 -9.9375 C -2.578125 -10.28125 -2.328125 -10.519531 -1.984375 -10.65625 C -1.640625 -10.800781 -1.289062 -10.800781 -0.9375 -10.65625 Z M -0.9375 -10.65625 "/></g></g></g><g fill="#25754a" fill-opacity="1"><g transform="translate(277.870034, 246.856231)"><g><path d="M -0.359375 -7.390625 C 0.015625 -7.992188 0.445312 -8.40625 0.9375 -8.625 C 1.4375 -8.851562 1.863281 -8.90625 2.21875 -8.78125 C 2.582031 -8.675781 2.773438 -8.363281 2.796875 -7.84375 C 2.835938 -7.300781 2.671875 -6.988281 2.296875 -6.90625 C 1.921875 -6.832031 1.597656 -6.632812 1.328125 -6.3125 C 1.035156 -6 1.003906 -5.523438 1.234375 -4.890625 C 1.460938 -4.253906 1.894531 -3.582031 2.53125 -2.875 C 2.613281 -2.78125 2.703125 -2.6875 2.796875 -2.59375 C 2.890625 -2.488281 2.96875 -2.378906 3.03125 -2.265625 C 3.144531 -2.054688 3.128906 -1.859375 2.984375 -1.671875 C 2.847656 -1.484375 2.65625 -1.320312 2.40625 -1.1875 C 2.164062 -1.0625 1.921875 -0.957031 1.671875 -0.875 C 1.378906 -0.789062 1.171875 -0.757812 1.046875 -0.78125 C 0.804688 -0.800781 0.585938 -0.90625 0.390625 -1.09375 C 0.191406 -1.257812 0.0078125 -1.429688 -0.15625 -1.609375 C -0.46875 -1.972656 -0.800781 -2.453125 -1.15625 -3.046875 C -1.519531 -3.640625 -1.816406 -4.164062 -2.046875 -4.625 C -2.273438 -5.082031 -2.457031 -5.492188 -2.59375 -5.859375 C -2.738281 -6.210938 -2.804688 -6.515625 -2.796875 -6.765625 C -2.785156 -6.960938 -2.734375 -7.125 -2.640625 -7.25 C -2.503906 -7.394531 -2.335938 -7.53125 -2.140625 -7.65625 C -1.929688 -7.769531 -1.738281 -7.859375 -1.5625 -7.921875 C -1.3125 -8.015625 -1.085938 -8.039062 -0.890625 -8 C -0.691406 -7.957031 -0.535156 -7.757812 -0.421875 -7.40625 Z M -0.359375 -7.390625 "/></g></g></g><g fill="#25754a" fill-opacity="1"><g transform="translate(285.693074, 242.907836)"><g><path d="M 2.921875 -6.453125 C 2.722656 -6.753906 2.351562 -6.960938 1.8125 -7.078125 C 1.257812 -7.203125 0.863281 -7.054688 0.625 -6.640625 C 0.457031 -6.390625 0.414062 -6.148438 0.5 -5.921875 C 0.59375 -5.691406 0.738281 -5.488281 0.9375 -5.3125 C 1.164062 -5.113281 1.4375 -5 1.75 -4.96875 C 2.0625 -4.945312 2.335938 -4.992188 2.578125 -5.109375 C 2.828125 -5.210938 3 -5.382812 3.09375 -5.625 C 3.175781 -5.851562 3.117188 -6.128906 2.921875 -6.453125 Z M -1.125 -7.171875 C -1.050781 -7.378906 -0.960938 -7.582031 -0.859375 -7.78125 C -0.628906 -8.226562 -0.3125 -8.601562 0.09375 -8.90625 C 0.507812 -9.21875 0.957031 -9.429688 1.4375 -9.546875 C 1.8125 -9.640625 2.191406 -9.671875 2.578125 -9.640625 C 2.953125 -9.609375 3.304688 -9.492188 3.640625 -9.296875 C 3.953125 -9.085938 4.242188 -8.796875 4.515625 -8.421875 C 4.878906 -7.878906 5.09375 -7.304688 5.15625 -6.703125 C 5.175781 -6.410156 5.1875 -6.117188 5.1875 -5.828125 C 5.175781 -5.515625 5.128906 -5.210938 5.046875 -4.921875 C 5.023438 -4.785156 5 -4.648438 4.96875 -4.515625 C 4.738281 -3.765625 4.363281 -3.097656 3.84375 -2.515625 C 3.425781 -2.066406 3.015625 -1.796875 2.609375 -1.703125 C 3.554688 -0.328125 4.03125 0.410156 4.03125 0.515625 C 4.03125 0.679688 3.988281 0.820312 3.90625 0.9375 C 3.820312 1.070312 3.671875 1.21875 3.453125 1.375 C 3.210938 1.53125 3.023438 1.644531 2.890625 1.71875 C 2.671875 1.8125 2.476562 1.859375 2.3125 1.859375 C 2.132812 1.835938 1.695312 1.207031 1 -0.03125 C 0.257812 -1.238281 -0.441406 -2.335938 -1.109375 -3.328125 C -1.785156 -4.304688 -2.476562 -5.113281 -3.1875 -5.75 C -3.28125 -5.8125 -3.363281 -5.882812 -3.4375 -5.96875 C -3.519531 -6.03125 -3.59375 -6.097656 -3.65625 -6.171875 C -3.757812 -6.328125 -3.753906 -6.488281 -3.640625 -6.65625 C -3.535156 -6.8125 -3.378906 -6.957031 -3.171875 -7.09375 C -2.984375 -7.226562 -2.78125 -7.347656 -2.5625 -7.453125 C -2.34375 -7.535156 -2.175781 -7.578125 -2.0625 -7.578125 C -1.851562 -7.597656 -1.660156 -7.546875 -1.484375 -7.421875 C -1.347656 -7.347656 -1.226562 -7.265625 -1.125 -7.171875 Z M -1.125 -7.171875 "/></g></g></g><g clip-path="url(#ff50a1cb9a)"><path fill="#f6d636" d="M 63.238281 178.53125 C 63.414062 178.414062 63.621094 178.386719 63.816406 178.332031 C 64.203125 178.230469 64.601562 178.183594 64.980469 178.046875 C 65.570312 177.839844 66.175781 177.652344 66.742188 177.382812 C 67.371094 177.089844 67.972656 176.746094 68.546875 176.347656 C 68.800781 176.175781 69.042969 175.980469 69.265625 175.769531 C 69.691406 175.359375 70.042969 174.894531 70.324219 174.375 C 70.617188 173.824219 70.789062 173.230469 70.980469 172.644531 C 71.195312 171.957031 71.375 171.261719 71.523438 170.554688 C 71.570312 170.328125 71.589844 170.089844 71.625 169.859375 C 71.644531 169.765625 71.691406 169.691406 71.765625 169.632812 C 71.8125 169.589844 71.867188 169.621094 71.902344 169.703125 C 72.003906 169.925781 72.082031 170.15625 72.140625 170.394531 C 72.3125 171.015625 72.503906 171.628906 72.722656 172.234375 C 72.894531 172.6875 73.09375 173.121094 73.328125 173.542969 C 73.453125 173.78125 74.214844 175.109375 74.375 175.3125 C 74.769531 175.816406 75.25 176.210938 75.820312 176.496094 C 76.109375 176.636719 76.410156 176.75 76.71875 176.832031 C 77.132812 176.949219 77.546875 177.101562 77.964844 177.222656 C 78.488281 177.386719 79.023438 177.503906 79.566406 177.585938 C 79.839844 177.636719 80.113281 177.703125 80.382812 177.785156 C 80.457031 177.808594 80.46875 177.863281 80.417969 177.921875 C 80.378906 177.964844 80.332031 177.992188 80.277344 178.007812 C 80.085938 178.078125 79.886719 178.136719 79.6875 178.183594 C 79.144531 178.332031 78.609375 178.519531 78.09375 178.753906 C 77.378906 179.058594 76.722656 179.457031 76.117188 179.949219 C 75.910156 180.117188 75.6875 180.277344 75.46875 180.445312 C 75.148438 180.6875 74.910156 181.007812 74.671875 181.328125 C 73.738281 182.519531 72.722656 186.324219 72.660156 186.632812 C 72.652344 186.667969 72.644531 186.699219 72.628906 186.730469 C 72.613281 186.773438 72.597656 186.835938 72.550781 186.835938 C 72.496094 186.824219 72.457031 186.789062 72.433594 186.738281 C 72.09375 186.058594 71.722656 185.394531 71.328125 184.746094 C 70.96875 184.148438 70.628906 183.539062 70.238281 182.960938 C 69.898438 182.4375 69.527344 181.933594 69.125 181.449219 C 68.574219 180.792969 67.910156 180.28125 67.140625 179.910156 C 66.617188 179.65625 66.078125 179.449219 65.519531 179.289062 C 65.042969 179.160156 64.570312 178.992188 64.089844 178.859375 C 63.867188 178.796875 63.648438 178.695312 63.410156 178.703125 C 63.34375 178.703125 63.292969 178.648438 63.238281 178.605469 Z M 63.238281 178.53125 " fill-opacity="1" fill-rule="nonzero"/></g></svg>